<svg width="1417" height="498" viewBox="0 0 1417 498" fill="none" xmlns="http://www.w3.org/2000/svg">
<g clip-path="url(#clip0)">
<path d="M1416.98 0H0V497.411H1416.98V0Z" fill="url(#paint0_linear)"/>
<path d="M354.053 139.34L353.152 138.617L352.076 139.036L195.033 200.109L193.957 200.527L193.781 201.668L168.151 368.208L167.975 369.349L168.876 370.072L300.287 475.538L301.188 476.261L302.264 475.842L459.307 414.77L460.383 414.351L460.558 413.21L486.189 246.671L486.365 245.53L485.464 244.807L354.053 139.34ZM772.419 477.919L771.519 477.196L770.443 477.614L613.4 538.687L612.324 539.106L612.148 540.247L586.518 706.786L586.342 707.927L587.242 708.65L718.654 814.117L719.555 814.839L720.631 814.421L877.674 753.348L878.75 752.93L878.925 751.788L904.556 585.249L904.732 584.108L903.831 583.385L772.419 477.919ZM548.471 -104.929L547.571 -105.652L546.494 -105.233L389.452 -44.1605L388.376 -43.742L388.2 -42.6007L362.569 123.938L362.393 125.08L363.294 125.803L494.706 231.269L495.606 231.992L496.682 231.573L653.725 170.501L654.801 170.082L654.977 168.941L680.608 2.40162L680.783 1.26035L679.883 0.537613L548.471 -104.929ZM966.838 233.649L965.938 232.927L964.861 233.345L807.819 294.418L806.743 294.836L806.567 295.978L780.936 462.517L780.76 463.658L781.661 464.381L913.073 569.847L913.973 570.57L915.049 570.152L1072.09 509.079L1073.17 508.661L1073.34 507.519L1098.97 340.98L1099.15 339.839L1098.25 339.116L966.838 233.649ZM660.445 186.495L659.545 185.772L658.469 186.191L501.426 247.263L500.35 247.682L500.174 248.823L474.543 415.362L474.368 416.504L475.268 417.226L606.68 522.693L607.581 523.416L608.657 522.997L765.699 461.924L766.776 461.506L766.951 460.365L792.582 293.825L792.758 292.684L791.857 291.961L660.445 186.495ZM230.829 -118.016L229.928 -118.739L228.852 -118.32L115.233 -74.1348L114.157 -73.7163L113.981 -72.5751L95.4376 47.9145L95.2619 49.0558L96.1625 49.7785L191.238 126.083L192.138 126.805L193.214 126.387L306.833 82.2013L307.909 81.7828L308.085 80.6415L326.629 -39.848L326.804 -40.9893L325.904 -41.7121L230.829 -118.016ZM1078.81 525.073L1077.91 524.35L1076.84 524.769L919.793 585.842L918.716 586.26L918.541 587.402L892.91 753.941L892.734 755.082L893.635 755.805L1025.05 861.271L1025.95 861.994L1027.02 861.575L1184.07 800.503L1185.14 800.084L1185.32 798.943L1210.95 632.404L1211.12 631.263L1210.22 630.54L1078.81 525.073ZM854.864 -57.7743L853.964 -58.4971L852.887 -58.0785L695.845 2.99413L694.769 3.41264L694.593 4.55391L668.962 171.093L668.786 172.234L669.687 172.957L801.099 278.424L801.999 279.146L803.076 278.728L960.118 217.655L961.194 217.237L961.37 216.095L987.001 49.5563L987.176 48.415L986.276 47.6922L854.864 -57.7743ZM1273.23 280.804L1272.33 280.081L1271.25 280.5L1114.21 341.573L1113.13 341.991L1112.96 343.132L1087.33 509.672L1087.15 510.813L1088.05 511.536L1219.46 617.002L1220.37 617.725L1221.44 617.306L1378.48 556.234L1379.56 555.815L1379.74 554.674L1405.37 388.135L1405.54 386.993L1404.64 386.271L1273.23 280.804Z" stroke="url(#paint1_radial)" stroke-width="4"/>
<path d="M917.5 292C917.5 359.655 862.655 414.5 795 414.5C727.345 414.5 672.5 359.655 672.5 292C672.5 224.345 727.345 169.5 795 169.5C862.655 169.5 917.5 224.345 917.5 292Z" stroke="#366A6A" stroke-opacity="0.19"/>
<path fill-rule="evenodd" clip-rule="evenodd" d="M376.811 120.251C376.608 123.137 376.08 126.552 375.186 130.494C374.251 134.396 373.113 138.583 371.691 142.972C369.496 145.248 367.342 147.605 365.228 150.044C363.155 152.523 361.163 155.002 359.253 157.563C357.383 160.083 355.594 162.601 353.968 165.162C352.302 167.722 350.8 170.202 349.499 172.641C348.158 175.039 346.978 177.356 345.962 179.591C344.987 181.786 344.215 183.818 343.645 185.688C343.523 186.216 343.443 186.785 343.484 187.354C343.484 187.923 343.606 188.411 343.809 188.817C343.931 188.98 344.093 189.223 344.337 189.67C344.621 190.077 344.947 190.524 345.353 191.052C345.719 191.581 346.165 192.151 346.653 192.72C347.1 193.289 347.589 193.858 348.077 194.345C348.524 194.833 349.01 195.199 349.457 195.524C349.904 195.808 350.312 195.929 350.637 195.929C351.532 195.848 352.263 195.686 352.832 195.524C353.442 195.321 353.929 195.076 354.376 194.873C356.002 193.979 357.668 192.475 359.457 190.483C361.204 188.41 362.951 186.013 364.699 183.25C366.447 180.486 368.194 177.396 369.901 174.063C371.568 170.73 373.194 167.277 374.738 163.7C376.323 160.164 377.787 156.586 379.128 153.009C380.429 149.433 381.607 146.019 382.623 142.808C384.533 141.101 386.443 139.516 388.313 138.053C390.182 136.59 391.972 135.29 393.679 134.193C395.427 133.055 397.05 132.121 398.636 131.389C400.18 130.657 401.603 130.128 402.903 129.843C403.35 129.762 403.757 129.762 404.042 129.843C404.367 129.925 404.652 130.087 404.815 130.29C405.018 130.534 405.14 130.778 405.262 131.103C405.343 131.388 405.384 131.714 405.384 131.958C405.384 134.031 404.773 136.264 403.595 138.662C402.416 141.06 400.751 143.419 398.556 145.776C396.361 148.133 393.679 150.368 390.549 152.522C387.42 154.636 383.843 156.466 379.901 158.01C380.389 158.579 380.916 159.229 381.445 159.879C382.014 160.57 382.543 161.26 383.03 161.91C383.599 162.601 384.087 163.253 384.534 163.904C384.981 164.513 385.386 165.04 385.67 165.487C387.54 164.756 389.451 163.781 391.402 162.562C393.353 161.342 395.263 159.919 397.092 158.334C398.921 156.749 400.629 155.042 402.254 153.213C403.88 151.344 405.303 149.433 406.522 147.442C407.742 145.409 408.715 143.337 409.406 141.265C410.097 139.232 410.465 137.201 410.465 135.209V134.598C410.424 134.192 410.3 133.704 409.975 133.094C409.691 132.525 409.327 131.876 408.839 131.185C408.392 130.535 407.863 129.844 407.253 129.194C406.644 128.544 406.034 127.933 405.384 127.405C404.774 126.836 404.124 126.43 403.515 126.065C402.905 125.74 402.335 125.575 401.807 125.575C399.246 125.575 396.646 126.104 393.922 127.079C391.24 128.095 388.517 129.519 385.712 131.307C385.834 130.738 385.957 130.251 386.038 129.763C386.119 129.276 386.199 128.787 386.24 128.299C385.874 127.73 385.387 127.08 384.778 126.348C384.168 125.576 383.476 124.845 382.663 124.113C381.891 123.341 380.997 122.61 379.981 121.919C379.005 121.228 377.949 120.658 376.811 120.251H376.811ZM487.199 126.105C483.5 127.08 479.963 129.194 476.63 132.445C473.216 135.738 469.925 140.044 466.715 145.49C463.463 150.855 460.293 157.278 457.123 164.635C455.681 167.98 454.239 171.534 452.79 175.241C451.638 176.339 450.526 177.163 449.44 177.722C448.017 178.453 446.473 178.9 444.806 179.022C445.497 177.843 446.107 176.666 446.514 175.487C446.961 174.308 447.165 173.089 447.165 171.91C447.084 171.707 446.88 171.382 446.514 170.854C446.189 170.366 445.783 169.838 445.336 169.228C444.848 168.659 444.401 168.047 443.954 167.478C443.507 166.909 443.14 166.464 442.855 166.138L442.612 166.382C441.921 167.032 441.313 167.723 440.784 168.455C440.215 169.187 439.767 169.876 439.36 170.486C438.873 171.218 438.507 171.949 438.182 172.681C437.654 173.656 437.369 174.511 437.247 175.283C437.125 176.055 437.044 176.705 437.044 177.274C437.044 177.437 437.046 177.64 437.086 177.883C437.086 178.127 437.125 178.412 437.165 178.696C436.027 180.281 434.931 181.543 433.874 182.559C432.858 183.534 432.004 184.062 431.354 184.062C430.744 184.062 430.459 183.656 430.459 182.802C430.459 181.827 430.704 180.405 431.232 178.616C431.76 176.787 432.776 174.755 434.28 172.519C435.255 171.015 436.191 169.795 437.004 168.86C437.817 167.926 438.549 167.236 439.159 166.708C439.768 166.22 440.255 165.854 440.62 165.651C440.986 165.448 441.189 165.284 441.229 165.162C441.229 165.04 441.108 164.796 440.864 164.471C440.62 164.105 440.295 163.74 439.929 163.414C439.564 163.048 439.158 162.724 438.711 162.44C438.305 162.155 437.897 161.993 437.491 161.993C437.369 161.993 437.208 161.993 436.964 162.032C436.801 162.073 436.637 162.114 436.556 162.154C433.996 162.886 431.76 163.944 429.89 165.326C428.02 166.708 426.477 168.293 425.299 170.081C424.079 171.91 423.226 173.862 422.657 175.934C422.504 176.491 422.372 177.047 422.255 177.604C422.136 177.702 422.05 177.784 421.926 177.884C421.153 178.574 420.3 179.266 419.487 179.957C418.593 180.648 417.779 181.299 417.007 181.868C416.194 182.437 415.504 182.925 414.894 183.25C414.284 183.616 413.836 183.819 413.552 183.819C413.349 183.819 413.268 183.738 413.268 183.575C413.268 183.088 413.47 182.315 413.795 181.259C414.161 180.161 414.568 178.941 415.056 177.64C415.584 176.299 416.072 174.958 416.641 173.576C417.17 172.194 417.618 170.934 417.983 169.877C418.065 169.633 418.063 169.35 417.941 169.025C417.86 168.659 417.617 168.414 417.292 168.17C416.276 167.438 415.218 166.706 414.121 165.975C413.186 165.325 412.129 164.675 410.991 163.984C409.853 163.252 408.757 162.643 407.7 162.075C407.659 161.424 407.618 160.896 407.618 160.449C407.578 160.002 407.536 159.716 407.536 159.594C407.455 159.431 407.252 159.228 406.927 159.025C406.643 158.781 406.318 158.578 405.953 158.416C405.587 158.213 405.261 158.051 404.936 157.929C404.611 157.807 404.408 157.725 404.367 157.725C404.286 157.725 404.123 157.888 403.798 158.254C403.513 158.579 403.188 159.025 402.781 159.594C402.415 160.163 402.009 160.773 401.603 161.424C401.197 162.114 400.791 162.764 400.425 163.415C400.059 164.065 399.774 164.675 399.53 165.244C399.327 165.813 399.204 166.26 399.204 166.544C399.204 166.829 399.286 167.032 399.448 167.113C399.773 167.357 400.221 167.683 400.668 168.008C401.075 168.333 401.521 168.659 402.09 169.025C402.619 169.39 403.269 169.796 403.96 170.203C402.984 171.219 402.01 172.195 400.994 173.17C399.978 174.146 399.123 174.998 398.392 175.689L400.385 177.722C400.832 177.315 401.32 176.828 401.889 176.34C402.458 175.852 402.985 175.325 403.554 174.796C404.083 174.308 404.651 173.739 405.18 173.21C405.708 172.723 406.197 172.194 406.644 171.746C406.969 171.909 407.253 172.073 407.578 172.236C407.863 172.398 408.188 172.559 408.513 172.681C408.391 173.006 408.186 173.454 407.902 174.063C407.617 174.673 407.293 175.446 406.927 176.422C406.602 177.438 406.195 178.617 405.789 179.999C405.382 181.381 404.976 183.005 404.529 184.833C404.529 185.362 404.733 185.851 405.14 186.379C405.587 186.908 406.075 187.395 406.644 187.801C407.253 188.248 407.861 188.615 408.471 188.9C409.121 189.184 409.65 189.305 410.057 189.305C410.707 189.305 411.478 189.101 412.413 188.654C413.348 188.207 414.365 187.638 415.463 186.906C416.56 186.175 417.657 185.403 418.836 184.468C419.847 183.673 420.821 182.85 421.768 182.048C421.768 182.097 421.761 182.145 421.761 182.193C421.761 182.844 422.006 183.575 422.494 184.388C422.982 185.201 423.55 186.013 424.281 186.745C424.972 187.476 425.786 188.086 426.68 188.574C427.574 189.062 428.427 189.305 429.24 189.305C430.256 189.305 431.271 189.143 432.409 188.818C433.507 188.493 434.605 188.005 435.743 187.396C436.84 186.786 437.936 186.094 439.034 185.241C440.091 184.428 441.107 183.533 442.041 182.517C443.261 182.517 444.48 182.396 445.618 182.233C446.797 181.989 447.936 181.664 449.033 181.217C449.642 180.956 450.249 180.645 450.852 180.291C449.751 183.209 448.647 186.191 447.53 189.305L439.849 190.2L440.498 194.468C441.432 194.386 442.367 194.305 443.262 194.224C444.197 194.143 445.05 194.02 445.944 193.898C444.603 197.637 443.302 201.497 442.002 205.44C440.742 209.382 439.4 213.489 437.977 217.716L448.869 214.179C450.17 209.952 451.389 206.009 452.568 202.31C453.747 198.652 454.886 195.159 455.983 191.907C459.844 190.851 463.503 189.387 466.957 187.518C470.453 185.648 473.867 183.209 477.24 180.242C476.997 181.096 476.752 181.908 476.589 182.721C476.386 183.493 476.223 184.224 476.06 184.833C476.06 185.362 476.264 185.851 476.711 186.379C477.117 186.908 477.606 187.395 478.175 187.801C478.785 188.248 479.352 188.615 480.002 188.9C480.652 189.184 481.182 189.305 481.588 189.305C482.238 189.305 483.012 189.101 483.947 188.654C484.881 188.207 485.897 187.638 486.994 186.906C488.091 186.175 489.229 185.403 490.367 184.468C491.505 183.574 492.602 182.64 493.658 181.746C493.873 181.564 494.062 181.394 494.268 181.217C494.078 182.142 493.944 182.946 493.944 183.493C493.944 183.94 494.189 184.509 494.717 185.159C495.286 185.85 495.895 186.46 496.586 187.11C497.318 187.72 498.049 188.249 498.821 188.696C499.593 189.102 500.203 189.305 500.65 189.305C501.301 189.305 502.072 189.101 503.007 188.654C503.982 188.207 504.999 187.638 506.096 186.906C507.194 186.175 508.292 185.403 509.43 184.468C510.568 183.574 511.706 182.64 512.763 181.746C513.82 180.811 514.794 179.958 515.728 179.064C516.623 178.211 517.396 177.437 518.005 176.827C517.721 176.502 517.394 176.136 517.028 175.771C516.703 175.364 516.38 175.04 516.136 174.796C515.811 175.081 515.322 175.486 514.712 176.014C514.062 176.583 513.371 177.154 512.599 177.804C511.827 178.454 511.014 179.104 510.16 179.795C509.307 180.445 508.494 181.055 507.722 181.624C506.99 182.153 506.299 182.598 505.689 182.964C505.079 183.289 504.632 183.493 504.307 183.493C504.144 183.493 504.063 183.37 504.063 183.208C504.063 182.029 504.267 180.526 504.714 178.656C505.121 176.828 505.731 174.795 506.422 172.559C507.154 170.365 507.966 168.008 508.9 165.569C509.795 163.09 510.73 160.652 511.746 158.254H519.956C520.2 158.254 520.403 158.254 520.565 158.172C520.728 158.132 520.85 158.051 520.891 158.011C521.175 157.767 521.542 157.401 521.907 156.954C522.314 156.466 522.679 156.019 523.004 155.572C523.288 155.125 523.491 154.758 523.613 154.392C523.694 154.067 523.654 153.905 523.369 153.905L513.412 154.27C514.225 152.278 515.038 150.411 515.81 148.622C516.623 146.834 517.355 145.248 518.005 143.825C518.615 142.403 519.184 141.265 519.631 140.33C520.078 139.396 520.363 138.785 520.525 138.501C520.607 138.419 520.605 138.338 520.605 138.297V138.257C520.605 138.135 520.484 138.054 520.2 138.054C519.915 138.054 519.387 138.176 518.696 138.379C518.005 138.582 517.232 138.827 516.419 139.152C515.566 139.436 514.712 139.761 513.859 140.126C512.965 140.492 512.234 140.818 511.624 141.143C510.771 141.509 510.119 141.916 509.631 142.281C509.184 142.647 508.779 143.012 508.495 143.378C508.21 143.703 507.966 144.029 507.844 144.394C507.681 144.76 507.518 145.086 507.396 145.411C506.827 146.549 506.219 147.89 505.487 149.475C504.796 151.06 504.064 152.807 503.292 154.717L497.886 154.921C497.683 155.043 497.439 155.206 497.195 155.49C496.951 155.775 496.789 156.099 496.586 156.465C496.383 156.79 496.261 157.116 496.139 157.441C496.017 157.766 495.935 158.01 495.935 158.172C495.935 158.254 495.935 158.254 495.975 158.254H496.017H501.868C500.893 160.774 499.958 163.333 498.982 165.975C498.047 168.617 497.196 171.056 496.464 173.372C496.15 174.315 495.88 175.189 495.62 176.048C495.614 176.054 495.613 176.054 495.609 176.055C494.958 176.624 494.269 177.232 493.456 177.882C492.683 178.573 491.869 179.264 490.975 179.955C490.162 180.646 489.309 181.297 488.537 181.866C487.724 182.435 487.034 182.923 486.424 183.248C485.814 183.614 485.366 183.818 485.082 183.818C484.919 183.818 484.838 183.736 484.838 183.574C484.838 183.249 484.96 182.719 485.204 181.906C485.488 181.134 485.814 180.241 486.22 179.184C486.586 178.168 487.033 177.071 487.48 175.933C487.968 174.754 488.374 173.657 488.78 172.6C489.187 171.543 489.513 170.568 489.757 169.714C490.042 168.861 490.162 168.21 490.162 167.763C490.162 167.357 489.879 166.868 489.31 166.299C488.7 165.73 488.05 165.202 487.319 164.673C486.587 164.145 485.895 163.699 485.204 163.373C484.553 163.007 484.108 162.804 483.946 162.804C483.864 162.804 483.62 163.13 483.294 163.821C482.969 164.471 482.603 165.365 482.156 166.463C481.709 167.56 481.221 168.779 480.692 170.201C480.164 171.624 479.637 173.088 479.109 174.551C477.117 176.38 475.246 177.964 473.499 179.346C471.71 180.728 470.003 181.907 468.296 182.923C466.589 183.939 464.883 184.832 463.136 185.523C461.429 186.255 459.599 186.865 457.608 187.353C458.827 184.101 459.964 181.054 461.021 178.25C462.077 175.486 463.054 172.965 463.988 170.649C466.59 168.698 469.11 166.585 471.589 164.39C474.069 162.154 476.385 159.878 478.539 157.562C480.693 155.204 482.684 152.847 484.513 150.49C486.342 148.133 487.927 145.815 489.228 143.498C490.569 141.263 491.586 139.108 492.317 137.036C493.049 135.003 493.414 133.095 493.414 131.388C493.414 131.022 493.375 130.777 493.334 130.615C493.293 130.452 493.17 130.33 493.048 130.168C492.723 129.802 492.358 129.396 491.87 128.949C491.423 128.543 490.895 128.135 490.366 127.729C489.838 127.363 489.31 126.997 488.741 126.713C488.212 126.428 487.685 126.225 487.197 126.103L487.199 126.105ZM488.213 130.251C488.498 130.251 488.621 130.453 488.621 130.86C488.621 131.754 488.378 132.893 487.89 134.275C487.402 135.657 486.71 137.2 485.775 138.948C484.881 140.655 483.744 142.483 482.484 144.434C481.183 146.425 479.76 148.418 478.216 150.409C476.672 152.441 475.005 154.433 473.217 156.425C471.429 158.416 469.6 160.286 467.649 162.074C468.34 160.57 468.95 159.23 469.479 158.132C470.007 157.035 470.452 156.099 470.859 155.408C471.306 154.554 471.673 153.824 471.957 153.255C474.355 149.069 476.428 145.532 478.216 142.565C480.045 139.679 481.588 137.322 482.889 135.493C484.19 133.664 485.289 132.364 486.142 131.511C486.996 130.698 487.685 130.251 488.213 130.251V130.251ZM491.628 146.549C491.385 146.549 491.018 146.833 490.53 147.484C490.083 148.134 489.637 148.864 489.19 149.758C488.743 150.612 488.337 151.508 488.012 152.442C487.687 153.377 487.522 154.107 487.522 154.717C487.522 154.839 487.766 155.083 488.213 155.408C488.701 155.733 489.271 156.059 489.921 156.425C490.571 156.75 491.221 157.075 491.912 157.359C492.643 157.644 493.254 157.766 493.741 157.807C493.904 157.807 494.108 157.643 494.392 157.277C494.636 156.952 494.92 156.506 495.245 155.977C495.53 155.449 495.855 154.879 496.18 154.27C496.505 153.619 496.789 153.051 496.993 152.482C497.277 151.913 497.481 151.426 497.644 150.978C497.847 150.531 497.929 150.288 497.969 150.166C497.969 150.003 497.724 149.717 497.236 149.311C496.749 148.904 496.181 148.499 495.531 148.093C494.88 147.686 494.149 147.319 493.458 146.994C492.726 146.669 492.116 146.549 491.628 146.549V146.549ZM365.268 160.732C363.805 164.309 362.342 167.765 360.838 170.975C359.335 174.227 357.912 177.07 356.571 179.509C355.229 181.947 354.051 183.859 352.954 185.241C351.857 186.663 351.003 187.354 350.394 187.354C350.109 187.354 349.946 187.232 349.946 186.866C349.946 185.525 350.352 183.898 351.125 181.947C351.897 180.037 352.954 177.925 354.336 175.649C355.718 173.373 357.301 170.976 359.171 168.415C361.041 165.895 363.073 163.293 365.268 160.732V160.732Z" fill="white"/>
<path fill-rule="evenodd" clip-rule="evenodd" d="M160.911 116.483C182.876 116.483 200.92 133.251 202.928 154.69L202.833 154.659C202.833 154.659 202.028 154.364 201.606 154.204C201.183 154.037 201.247 153.75 200.968 153.758C200.681 153.758 200.538 153.646 200.538 153.646C200.538 153.646 200.689 153.439 200.936 153.073C201.183 152.706 201.462 152.18 201.462 152.18C201.462 152.18 201.319 152.427 201.087 152.483C200.864 152.539 199.701 152.658 199.701 152.658C199.701 152.658 199.788 152.379 199.796 152.172C199.804 151.965 199.812 151.598 199.812 151.598C199.812 151.598 199.621 151.605 199.414 151.71C199.207 151.805 198.673 152.06 198.457 151.845C198.242 151.638 198.059 151.056 198.123 150.769C198.178 150.49 198.338 150.466 198.442 150.442C198.553 150.419 198.816 150.426 198.816 150.426C198.816 150.426 198.298 150.147 197.995 150.019C197.692 149.891 197.214 149.66 197.214 149.382C197.214 149.103 197.302 149.015 197.23 148.8C197.159 148.585 197.023 148.449 197.023 148.449C197.023 148.449 196.975 148.744 196.824 148.744C196.664 148.744 196.21 148.529 195.764 148.027C195.325 147.525 195.278 147.485 194.999 147.381C194.712 147.277 194.114 146.759 194.106 146.369C194.098 145.978 194.226 145.779 194.226 145.779C194.226 145.779 194.098 145.859 193.819 146.09C193.54 146.321 193.421 146.297 193.221 146.265C193.014 146.225 192.863 146.146 192.911 145.771C192.95 145.397 193.118 144.982 193.118 144.759C193.118 144.536 193.046 144.384 193.046 144.384C193.046 144.384 192.998 144.871 192.807 144.831C192.616 144.791 192.369 144.456 192.241 144.321C192.122 144.193 192.249 144.36 192.09 144.528C191.93 144.695 191.731 144.886 191.524 144.528C191.317 144.169 190.647 142.615 190.695 142.24C190.751 141.866 190.687 141.643 190.687 141.643C190.687 141.643 190.655 141.882 190.575 142.097C190.496 142.312 190.504 142.607 190.185 142.567C189.874 142.535 189.412 142.312 189.412 142.312C189.412 142.312 190.95 138.869 190.719 137.164C190.496 135.466 189.978 133.099 186.837 132.836C183.697 132.581 182.669 132.429 181.019 133.099C179.37 133.76 177.776 135.203 177.776 135.203C177.776 135.203 170.148 132.334 166.395 132.509C162.649 132.684 154.352 133.171 149.466 135.06C144.581 136.956 145.354 136.287 143.218 137.841C141.082 139.379 140.676 139.634 140.468 139.873C140.261 140.104 138.914 141.85 138.404 142.264C137.886 142.671 137.783 142.878 137.32 142.982C136.858 143.085 136.571 143.141 136.547 143.292C136.523 143.444 136.444 143.858 136.444 144.217C136.444 144.576 136.316 145.452 136.037 145.787C135.75 146.122 134.905 147.206 134.905 147.206C134.905 147.206 135.065 147.206 135.415 147.253C135.774 147.309 135.774 147.309 135.774 147.309C135.774 147.309 135.001 147.899 133.566 149.111C132.124 150.314 130.936 151.549 130.068 152.195C129.191 152.841 128.673 153.327 127.956 153.685C127.238 154.044 125.581 155.16 125.222 155.558C124.871 155.949 124.736 155.973 124.664 156.108C124.584 156.236 124.337 156.706 124.457 157.081C124.576 157.463 125.023 159.145 125.126 159.193C125.23 159.241 125.23 159.248 125.262 159.28C125.286 159.312 125.485 159.535 125.549 159.591C125.62 159.647 125.708 159.703 125.756 159.727C125.796 159.743 125.828 159.734 125.843 159.758C125.859 159.782 125.883 159.83 125.931 159.814C125.971 159.797 125.971 159.711 125.995 159.679C126.011 159.647 126.17 159.527 126.345 159.519C126.521 159.512 126.561 159.551 126.632 159.575C126.704 159.599 126.72 159.607 126.72 159.607C126.72 159.607 126.712 160.181 126.728 160.34C126.744 160.492 126.792 160.667 126.8 160.771C126.808 160.874 126.792 161.305 126.792 161.424C126.792 161.536 126.8 162.644 126.999 162.947C127.206 163.257 127.437 163.512 127.469 163.64C127.493 163.776 127.804 163.975 127.9 164.182C128.003 164.389 128.195 164.883 128.545 164.907C128.896 164.924 129.852 164.867 130.06 164.859C130.259 164.852 130.299 164.82 130.37 164.804C130.45 164.78 130.737 164.804 130.737 164.804C130.737 164.804 130.872 165.242 131.032 165.409C131.183 165.576 131.558 165.68 131.558 165.68C131.558 165.68 131.462 165.178 131.51 165.051C131.566 164.923 131.502 164.724 131.972 164.676C132.435 164.62 136.34 164.7 136.34 164.7C136.34 164.7 136.619 164.907 136.778 164.907C136.945 164.907 137.83 164.724 138.037 165.218C138.245 165.704 137.535 165.728 137.36 165.752C137.193 165.769 136.738 165.815 136.603 165.863C136.475 165.911 136.236 165.983 136.236 165.983C136.236 165.983 136.26 166.222 135.838 166.358C135.415 166.501 135.248 166.676 135.208 166.756C135.168 166.836 134.897 167.218 134.802 167.274C134.698 167.322 134.244 167.473 134.084 167.457C133.925 167.45 133.502 167.298 133.303 166.963C133.112 166.629 133.104 166.501 133.104 166.501C133.104 166.501 132.793 166.9 132.897 167.21C133 167.529 133.144 167.808 133.232 168.095C133.319 168.382 133.487 168.844 133.319 168.964C133.16 169.075 132.897 169.179 132.897 169.179C132.897 169.179 132.881 169.713 132.905 169.992C132.921 170.263 132.976 170.558 132.992 170.685C133 170.813 132.945 171.052 133 171.132C133.048 171.211 134.028 173.084 135.415 173.602C136.802 174.112 137.527 174.423 138.452 174.272C139.376 174.112 140.843 173.65 141.05 173.65C141.257 173.65 141.584 173.602 141.68 173.65C141.783 173.706 142.062 173.857 142.062 173.857C142.062 173.857 142.038 173.666 141.99 173.586C141.943 173.499 141.911 173.403 141.967 173.323C142.014 173.244 142.07 173.148 142.493 173.116C142.907 173.084 143.792 172.941 144.214 172.988C144.636 173.036 144.636 173.243 144.636 173.243L144.557 173.578C144.557 173.578 144.581 173.498 144.788 173.498C144.995 173.498 145.226 173.754 145.457 174.168C145.688 174.574 145.824 174.861 145.92 174.941C146.023 175.013 146.135 174.941 146.262 175.005C146.39 175.068 146.39 175.077 146.462 175.108C146.533 175.14 146.693 175.196 146.693 175.196C146.693 175.196 146.709 175.539 146.78 175.73C146.86 175.921 146.948 176.12 146.948 176.12C146.948 176.12 146.884 175.754 147.035 175.618C147.179 175.475 147.593 175.252 147.777 175.611C147.96 175.962 147.896 175.986 147.904 176.105C147.904 176.225 147.896 176.233 147.928 176.297C147.96 176.352 148.04 176.472 148.04 176.472C148.04 176.472 148 176.225 148.063 176.193C148.135 176.161 148.295 176.257 148.422 176.321C148.558 176.377 148.852 176.377 148.852 176.377C148.852 176.377 148.972 176.735 149.012 176.95C149.044 177.158 148.988 177.03 149.187 176.982C149.386 176.926 149.522 176.895 149.522 176.895C149.522 176.895 149.538 177.19 149.53 177.532C149.53 177.875 149.554 178.473 149.339 178.72C149.131 178.967 148.924 179.039 148.924 179.039C148.924 179.039 149.211 179.102 149.506 179.086C149.801 179.069 150.295 179.063 150.446 179.27C150.606 179.477 150.606 179.732 150.606 179.732C150.606 179.732 150.399 179.844 150.231 179.907C150.056 179.971 149.833 180.043 149.833 180.043C149.833 180.043 149.944 180.178 149.984 180.218C150.024 180.25 150.144 180.298 150.144 180.298V180.609L150.048 180.602C150.048 180.602 150.088 180.96 150.144 181.072C150.191 181.175 150.271 181.167 150.271 181.167L150.709 181.12H150.964C150.964 181.12 150.893 181.359 150.829 181.486C150.757 181.614 150.582 181.996 150.399 181.996C150.215 181.996 149.928 181.989 149.928 181.989C149.928 181.989 150.223 182.173 150.367 182.22C150.51 182.268 150.598 182.244 150.709 182.204C150.821 182.164 150.965 182.1 150.965 182.1C150.965 182.1 150.996 182.251 150.925 182.387C150.861 182.514 150.861 182.61 150.861 182.61C150.861 182.61 150.861 182.889 150.861 183.04C150.861 183.192 150.861 183.439 150.861 183.439L151.116 183.335C151.116 183.335 151.251 183.582 151.251 183.766C151.251 183.949 151.22 184.308 151.22 184.443C151.22 184.579 151.156 184.881 151.148 185.216C151.14 185.543 151.22 185.702 151.299 186.117C151.379 186.523 151.531 187.504 151.379 187.655C151.22 187.814 150.845 187.974 150.71 188.165C150.574 188.356 150.447 188.588 150.447 188.588C150.447 188.588 150.893 188.213 151.196 188.229C151.507 188.253 152.057 188.212 152.096 188.428C152.136 188.651 152.2 189.098 151.993 189.201C151.786 189.305 150.733 189.241 150.733 189.241C150.733 189.241 150.757 189.663 150.996 189.719C151.236 189.783 151.443 189.751 151.554 190.022C151.666 190.301 151.674 190.5 151.435 190.54C151.188 190.58 150.837 190.692 150.749 190.795C150.67 190.899 150.502 191.257 150.502 191.257C150.502 191.257 150.686 191.05 150.813 191.106C150.933 191.162 151.156 191.313 151.259 191.505C151.363 191.704 151.427 191.775 151.251 191.927C151.068 192.086 150.622 192.174 150.367 192.357C150.112 192.549 150.176 192.708 150.088 192.804C150 192.899 150.343 192.525 150.526 192.66C150.71 192.804 150.813 192.756 150.606 193.011C150.399 193.266 150.239 193.314 150.239 193.314C150.239 193.314 150.287 193.362 150.399 193.377C150.51 193.394 150.678 193.409 150.678 193.409C150.678 193.409 150.614 193.601 150.526 193.72C150.439 193.84 150.144 194.143 150.144 194.143C150.144 194.143 150.239 194.246 150.359 194.302C150.478 194.35 150.654 194.398 150.654 194.398C150.654 194.398 150.582 194.597 150.502 194.716C150.422 194.844 150.167 195.091 150.167 195.091C150.167 195.091 150.247 195.123 150.343 195.242C150.438 195.362 150.55 195.458 150.654 195.474C150.757 195.481 150.925 195.513 150.925 195.513C150.925 195.513 150.837 195.944 150.646 196.127C150.454 196.31 150.247 196.557 150.247 196.557C150.247 196.557 150.112 196.526 150.08 196.574C150.048 196.622 150.008 196.805 149.936 196.869C149.865 196.933 149.418 197.332 149.418 197.332C149.418 197.332 149.139 197.61 149.099 197.802C149.06 198.001 149.076 198.216 149.076 198.216C149.076 198.216 149.347 197.618 149.681 197.594C150.008 197.571 150.032 197.618 150.191 197.666C150.351 197.722 150.55 198.057 150.55 198.057C150.55 198.057 150.128 198.384 149.968 198.631C149.809 198.878 149.681 199.133 149.681 199.133C149.681 199.133 149.785 199.164 149.865 199.22C149.944 199.276 150.072 199.388 150.072 199.388L150.08 199.483C132.012 194.701 118.71 178.244 118.71 158.685C118.71 135.373 137.599 116.485 160.911 116.485L160.911 116.483Z" fill="white"/>
<path fill-rule="evenodd" clip-rule="evenodd" d="M160.991 187.072C160.991 187.072 159.022 186.315 157.707 185.861C156.392 185.407 154.71 184.873 154.527 185.008C154.344 185.136 154.376 185.12 154.296 185.287C154.224 185.462 154.121 185.709 154.121 185.709C154.121 185.709 153.547 185.662 153.419 186.012C153.284 186.371 153.252 186.833 153.276 187.702C153.3 188.587 153.419 190.515 153.571 190.914C153.722 191.32 154.025 192.181 154.447 193.161C154.878 194.142 155.029 194.652 155.181 195.13C155.332 195.608 155.643 196.023 155.874 196.015C156.097 195.998 158.361 195.05 158.871 194.747C159.381 194.444 160.744 193.241 161.27 192.58C161.796 191.926 161.947 191.671 161.947 191.671C161.947 191.671 162.258 191.639 162.505 191.583C162.752 191.536 163.485 191.352 163.485 191.352C163.485 191.352 163.541 191.519 163.796 191.472C164.043 191.424 164.482 191.273 164.482 191.273C164.482 191.273 164.84 191.352 164.976 191.32C165.119 191.288 165.462 191.049 165.462 191.049C165.462 191.049 166.896 191.623 167.654 191.822C168.411 192.03 169.128 192.229 169.71 192.277C170.284 192.333 170.499 192.333 170.499 192.333C170.499 192.333 171.168 192.404 171.599 192.396C172.029 192.389 173.057 192.277 173.559 192.03C174.069 191.775 174.42 191.631 174.524 191.472C174.627 191.312 174.54 190.739 174.38 190.348C174.221 189.958 174.03 189.639 173.663 189.248C173.296 188.866 173.081 187.758 172.954 187.327C172.834 186.897 172.475 185.558 172.101 184.554C171.718 183.542 170.889 181.749 170.634 181.35C170.387 180.944 170.124 180.497 169.75 180.521C169.367 180.553 169.271 180.816 168.658 181.27C168.052 181.725 166.793 182.681 166.036 183.494C165.279 184.299 164.577 185.008 164.274 185.431C163.971 185.861 163.517 186.515 163.517 186.515C163.517 186.515 163.039 186.57 162.672 186.57C162.306 186.57 161.875 186.658 161.612 186.746C161.349 186.833 160.991 187.073 160.991 187.073V187.072Z" fill="white"/>
<path fill-rule="evenodd" clip-rule="evenodd" d="M270.406 122.975C270.446 123.097 270.488 123.3 270.57 123.584C270.61 123.828 270.692 124.195 270.773 124.683C270.855 125.13 270.936 125.697 271.017 126.388C271.098 127.079 271.097 127.892 271.097 128.827C271.097 132.119 270.773 135.615 270.082 139.192C269.391 142.809 268.375 146.508 267.075 150.166C265.774 153.824 264.147 157.441 262.278 161.018C260.367 164.595 258.213 168.008 255.815 171.219C253.417 174.43 250.776 177.437 247.89 180.16C245.045 182.883 241.998 185.24 238.706 187.272C239.559 183.817 240.452 180.16 241.428 176.218C242.403 172.275 243.419 168.212 244.557 164.026C245.655 159.799 246.874 155.49 248.174 151.1C249.434 146.67 250.857 142.281 252.32 137.891C252.32 137.891 252.157 137.687 251.873 137.24C251.548 136.834 251.183 136.265 250.655 135.615C250.126 134.964 249.557 134.193 248.907 133.38C248.257 132.567 247.605 131.712 246.914 130.9C246.264 130.087 245.614 129.316 245.045 128.625C244.435 127.893 243.907 127.325 243.501 126.878C242.241 130.739 241.062 134.722 239.924 138.786C238.786 142.851 237.73 146.914 236.755 150.857C235.739 154.84 234.843 158.659 234.071 162.358C233.258 166.097 232.609 169.511 232 172.641C231.431 175.811 230.982 178.616 230.697 181.055C230.372 183.493 230.25 185.444 230.25 186.866C230.25 187.435 230.292 187.924 230.414 188.33C230.577 188.777 230.699 189.102 230.861 189.305C231.024 189.63 231.308 190.078 231.714 190.647C232.08 191.216 232.568 191.825 233.096 192.394C233.624 192.963 234.194 193.531 234.804 193.978C235.413 194.425 235.983 194.629 236.511 194.629C236.633 194.629 236.755 194.629 236.998 194.589C237.242 194.549 237.527 194.425 237.811 194.303C240.006 193.409 242.485 191.988 245.33 190.078C248.135 188.167 251.061 185.849 254.11 183.086C257.117 180.322 260.124 177.193 263.172 173.697C266.18 170.202 268.985 166.382 271.586 162.318C274.187 158.213 276.463 153.904 278.414 149.311C280.365 144.759 281.828 140.005 282.722 135.127L270.406 122.975ZM289.021 146.549C288.777 146.549 288.411 146.833 287.964 147.484C287.517 148.134 287.072 148.864 286.624 149.758C286.177 150.612 285.81 151.508 285.444 152.442C285.119 153.377 284.957 154.107 284.957 154.717C284.957 154.839 285.201 155.083 285.648 155.408C286.095 155.733 286.665 156.059 287.315 156.425C287.966 156.75 288.615 157.075 289.346 157.359C290.037 157.644 290.648 157.766 291.136 157.807C291.298 157.807 291.542 157.643 291.827 157.277C292.071 156.952 292.354 156.506 292.68 155.977C292.964 155.449 293.289 154.879 293.614 154.27C293.939 153.619 294.223 153.051 294.467 152.482C294.711 151.913 294.915 151.426 295.118 150.978C295.281 150.531 295.402 150.288 295.402 150.166C295.402 150.003 295.158 149.717 294.711 149.311C294.182 148.904 293.613 148.499 292.963 148.093C292.272 147.686 291.582 147.319 290.85 146.994C290.119 146.669 289.509 146.549 289.021 146.549V146.549ZM310.816 162.024C310.785 162.015 310.765 162.013 310.765 162.031C310.684 162.071 310.644 162.073 310.603 162.073C309.1 162.52 307.677 163.129 306.336 163.86C304.954 164.592 303.776 165.323 302.719 166.055C301.459 166.909 300.319 167.844 299.222 168.779C297.108 170.689 295.485 172.558 294.265 174.387C293.954 174.844 293.661 175.289 293.387 175.725C293.239 175.852 293.175 175.906 293.005 176.055C292.355 176.623 291.662 177.231 290.89 177.882C290.077 178.573 289.265 179.264 288.412 179.955C287.558 180.646 286.706 181.297 285.933 181.866C285.161 182.435 284.428 182.923 283.818 183.248C283.249 183.614 282.763 183.817 282.478 183.817C282.316 183.817 282.235 183.736 282.235 183.574C282.235 183.249 282.315 182.76 282.518 182.11C282.721 181.419 282.966 180.687 283.291 179.793C283.576 178.899 283.901 177.963 284.308 176.947C284.674 175.931 285.078 174.916 285.444 173.9C285.85 172.883 286.217 171.949 286.542 170.974C286.908 170.039 287.192 169.226 287.395 168.535C287.476 168.373 287.517 168.169 287.517 168.088C287.558 167.966 287.559 167.844 287.559 167.763C287.559 167.356 287.273 166.868 286.704 166.299C286.135 165.73 285.444 165.201 284.753 164.673C284.021 164.145 283.29 163.698 282.64 163.373C281.99 163.007 281.544 162.804 281.422 162.804C281.3 162.804 281.055 163.17 280.689 163.942C280.323 164.674 279.917 165.648 279.429 166.868C278.941 168.087 278.413 169.469 277.803 171.054C277.193 172.598 276.667 174.225 276.098 175.851C275.569 177.476 275.041 179.061 274.594 180.646C274.147 182.231 273.74 183.612 273.455 184.832C273.455 185.36 273.698 185.849 274.104 186.377C274.511 186.906 274.999 187.393 275.608 187.799C276.177 188.246 276.788 188.613 277.398 188.898C278.048 189.182 278.577 189.303 278.984 189.303C279.674 189.303 280.447 189.099 281.422 188.652C282.357 188.205 283.332 187.636 284.43 186.905C285.527 186.173 286.623 185.401 287.761 184.466C288.678 183.745 289.574 183.003 290.449 182.271C290.401 182.467 290.354 182.663 290.323 182.841C290.16 183.775 290.077 184.346 290.077 184.508C290.077 185.077 290.242 185.687 290.567 186.256C290.851 186.825 291.257 187.352 291.663 187.799C292.151 188.246 292.557 188.613 293.045 188.898C293.492 189.182 293.859 189.303 294.143 189.303H294.387C294.468 189.303 294.548 189.303 294.711 189.221C295.849 188.855 297.15 188.288 298.491 187.516C299.873 186.744 301.215 185.888 302.597 184.953C303.938 184.019 305.238 183.044 306.458 181.988C307.717 180.931 308.775 179.916 309.669 178.94C309.344 180.038 309.098 180.931 308.936 181.662C308.773 182.394 308.653 183.003 308.612 183.532C308.572 184.06 308.53 184.467 308.53 184.792C308.571 185.117 308.57 185.361 308.57 185.565C308.57 186.174 308.733 186.701 309.058 187.148C309.383 187.636 309.83 188.043 310.318 188.369C310.806 188.734 311.334 189.019 311.943 189.181C312.553 189.384 313.081 189.507 313.569 189.507C314.301 189.507 315.156 189.263 316.132 188.816C317.066 188.328 318.122 187.758 319.179 187.026C320.276 186.336 321.374 185.482 322.512 184.588C323.61 183.653 324.747 182.719 325.803 181.784C326.86 180.849 327.836 179.956 328.771 179.062C329.706 178.209 330.517 177.435 331.168 176.825C330.842 176.5 330.519 176.135 330.153 175.729C329.787 175.322 329.462 174.956 329.218 174.712C328.893 175.038 328.404 175.443 327.794 176.012C327.185 176.581 326.454 177.192 325.682 177.842C324.909 178.492 324.097 179.184 323.243 179.875C322.43 180.566 321.618 181.175 320.887 181.744C320.114 182.273 319.462 182.72 318.893 183.126C318.284 183.451 317.879 183.653 317.635 183.653C317.473 183.653 317.39 183.573 317.39 183.37C317.39 183.085 317.431 182.639 317.471 182.07C317.512 181.541 317.594 180.849 317.797 180.037C317.96 179.224 318.245 178.29 318.57 177.233C318.936 176.176 319.422 174.996 320.032 173.696C320.032 173.371 319.95 172.924 319.706 172.396C319.462 171.827 319.179 171.218 318.853 170.608C318.528 169.999 318.163 169.428 317.757 168.941C317.391 168.412 317.025 168.048 316.74 167.844C316.659 167.804 316.619 167.804 316.619 167.844C316.578 167.844 316.577 167.884 316.577 167.924C316.048 168.818 315.399 169.673 314.667 170.526C313.936 171.38 313.204 172.151 312.513 172.801C311.7 173.614 310.886 174.347 309.992 175.038C309.057 175.851 308.124 176.623 307.23 177.354C306.336 178.086 305.481 178.735 304.75 179.264C303.978 179.792 303.328 180.241 302.719 180.566C302.15 180.85 301.661 181.011 301.255 181.011C300.889 181.011 300.686 180.808 300.686 180.32C300.686 179.67 301.052 178.654 301.824 177.191C302.637 175.727 304.018 174.022 306.05 172.03C306.903 171.217 307.798 170.363 308.814 169.51C309.667 168.778 310.644 168.006 311.742 167.193C312.839 166.38 314.017 165.649 315.277 164.959L315.359 164.877C315.399 164.877 315.399 164.836 315.359 164.755C315.237 164.592 315.033 164.388 314.668 164.104C314.342 163.86 313.936 163.617 313.489 163.333C313.042 163.089 312.554 162.844 312.107 162.6C311.66 162.356 311.254 162.195 310.929 162.073C310.888 162.052 310.846 162.032 310.816 162.022L310.816 162.024Z" fill="white"/>
<path d="M263.532 288.28C261.516 288.28 260.023 287.627 259.052 286.32C258.1 284.995 257.596 283.389 257.54 281.504L257.512 280.72L257.54 279.936C257.596 278.051 258.1 276.455 259.052 275.148C260.023 273.823 261.516 273.16 263.532 273.16C265.567 273.16 267.135 273.897 268.236 275.372V268.736C268.236 268.549 268.292 268.4 268.404 268.288C268.516 268.176 268.665 268.12 268.852 268.12H269.328C269.515 268.12 269.664 268.176 269.776 268.288C269.888 268.4 269.944 268.549 269.944 268.736V287.384C269.944 287.571 269.888 287.72 269.776 287.832C269.664 287.944 269.515 288 269.328 288H268.852C268.665 288 268.516 287.944 268.404 287.832C268.292 287.72 268.236 287.571 268.236 287.384V286.068C267.153 287.543 265.585 288.28 263.532 288.28ZM263.7 286.656C265.175 286.656 266.285 286.171 267.032 285.2C267.779 284.211 268.18 283.053 268.236 281.728C268.255 281.541 268.264 281.177 268.264 280.636C268.264 280.095 268.255 279.731 268.236 279.544C268.217 278.741 268.04 277.985 267.704 277.276C267.368 276.548 266.864 275.951 266.192 275.484C265.52 275.017 264.689 274.784 263.7 274.784C262.188 274.784 261.077 275.269 260.368 276.24C259.677 277.192 259.304 278.424 259.248 279.936L259.22 280.72C259.22 282.456 259.556 283.884 260.228 285.004C260.9 286.105 262.057 286.656 263.7 286.656Z" fill="#EF4842"/>
<path d="M278.43 288.28C277.534 288.28 276.703 288.093 275.938 287.72C275.173 287.347 274.557 286.843 274.09 286.208C273.642 285.573 273.418 284.873 273.418 284.108C273.418 282.876 273.913 281.868 274.902 281.084C275.91 280.3 277.263 279.796 278.962 279.572L283.386 278.956V277.976C283.386 276.949 283.069 276.165 282.434 275.624C281.818 275.064 280.866 274.784 279.578 274.784C278.626 274.784 277.842 274.971 277.226 275.344C276.629 275.717 276.246 276.165 276.078 276.688C276.003 276.912 275.91 277.071 275.798 277.164C275.705 277.239 275.574 277.276 275.406 277.276H275.014C274.846 277.276 274.697 277.22 274.566 277.108C274.454 276.977 274.398 276.828 274.398 276.66C274.398 276.249 274.585 275.773 274.958 275.232C275.331 274.672 275.91 274.187 276.694 273.776C277.478 273.365 278.439 273.16 279.578 273.16C281.575 273.16 282.994 273.636 283.834 274.588C284.674 275.54 285.094 276.697 285.094 278.06V287.384C285.094 287.571 285.038 287.72 284.926 287.832C284.814 287.944 284.665 288 284.478 288H284.002C283.815 288 283.666 287.944 283.554 287.832C283.442 287.72 283.386 287.571 283.386 287.384V286.068C282.975 286.684 282.369 287.207 281.566 287.636C280.782 288.065 279.737 288.28 278.43 288.28ZM278.71 286.656C280.073 286.656 281.193 286.208 282.07 285.312C282.947 284.416 283.386 283.128 283.386 281.448V280.496L279.774 281C278.243 281.205 277.086 281.56 276.302 282.064C275.518 282.568 275.126 283.203 275.126 283.968C275.126 284.827 275.481 285.489 276.19 285.956C276.918 286.423 277.758 286.656 278.71 286.656Z" fill="#EF4842"/>
<path d="M294.786 288.28C292.77 288.28 291.277 287.627 290.306 286.32C289.354 284.995 288.85 283.389 288.794 281.504L288.766 280.72L288.794 279.936C288.85 278.051 289.354 276.455 290.306 275.148C291.277 273.823 292.77 273.16 294.786 273.16C296.821 273.16 298.389 273.897 299.49 275.372V268.736C299.49 268.549 299.546 268.4 299.658 268.288C299.77 268.176 299.919 268.12 300.106 268.12H300.582C300.769 268.12 300.918 268.176 301.03 268.288C301.142 268.4 301.198 268.549 301.198 268.736V287.384C301.198 287.571 301.142 287.72 301.03 287.832C300.918 287.944 300.769 288 300.582 288H300.106C299.919 288 299.77 287.944 299.658 287.832C299.546 287.72 299.49 287.571 299.49 287.384V286.068C298.407 287.543 296.839 288.28 294.786 288.28ZM294.954 286.656C296.429 286.656 297.539 286.171 298.286 285.2C299.033 284.211 299.434 283.053 299.49 281.728C299.509 281.541 299.518 281.177 299.518 280.636C299.518 280.095 299.509 279.731 299.49 279.544C299.471 278.741 299.294 277.985 298.958 277.276C298.622 276.548 298.118 275.951 297.446 275.484C296.774 275.017 295.943 274.784 294.954 274.784C293.442 274.784 292.331 275.269 291.622 276.24C290.931 277.192 290.558 278.424 290.502 279.936L290.474 280.72C290.474 282.456 290.81 283.884 291.482 285.004C292.154 286.105 293.311 286.656 294.954 286.656Z" fill="#EF4842"/>
<path d="M309.684 288.28C308.788 288.28 307.957 288.093 307.192 287.72C306.427 287.347 305.811 286.843 305.344 286.208C304.896 285.573 304.672 284.873 304.672 284.108C304.672 282.876 305.167 281.868 306.156 281.084C307.164 280.3 308.517 279.796 310.216 279.572L314.64 278.956V277.976C314.64 276.949 314.323 276.165 313.688 275.624C313.072 275.064 312.12 274.784 310.832 274.784C309.88 274.784 309.096 274.971 308.48 275.344C307.883 275.717 307.5 276.165 307.332 276.688C307.257 276.912 307.164 277.071 307.052 277.164C306.959 277.239 306.828 277.276 306.66 277.276H306.268C306.1 277.276 305.951 277.22 305.82 277.108C305.708 276.977 305.652 276.828 305.652 276.66C305.652 276.249 305.839 275.773 306.212 275.232C306.585 274.672 307.164 274.187 307.948 273.776C308.732 273.365 309.693 273.16 310.832 273.16C312.829 273.16 314.248 273.636 315.088 274.588C315.928 275.54 316.348 276.697 316.348 278.06V287.384C316.348 287.571 316.292 287.72 316.18 287.832C316.068 287.944 315.919 288 315.732 288H315.256C315.069 288 314.92 287.944 314.808 287.832C314.696 287.72 314.64 287.571 314.64 287.384V286.068C314.229 286.684 313.623 287.207 312.82 287.636C312.036 288.065 310.991 288.28 309.684 288.28ZM309.964 286.656C311.327 286.656 312.447 286.208 313.324 285.312C314.201 284.416 314.64 283.128 314.64 281.448V280.496L311.028 281C309.497 281.205 308.34 281.56 307.556 282.064C306.772 282.568 306.38 283.203 306.38 283.968C306.38 284.827 306.735 285.489 307.444 285.956C308.172 286.423 309.012 286.656 309.964 286.656Z" fill="#EF4842"/>
<path d="M325.539 288C324.158 288 323.178 287.589 322.599 286.768C322.02 285.928 321.731 284.78 321.731 283.324V275.064H319.547C319.36 275.064 319.211 275.008 319.099 274.896C318.987 274.784 318.931 274.635 318.931 274.448V274.056C318.931 273.869 318.987 273.72 319.099 273.608C319.211 273.496 319.36 273.44 319.547 273.44H321.731V268.736C321.731 268.549 321.787 268.4 321.899 268.288C322.011 268.176 322.16 268.12 322.347 268.12H322.823C323.01 268.12 323.159 268.176 323.271 268.288C323.383 268.4 323.439 268.549 323.439 268.736V273.44H326.911C327.098 273.44 327.247 273.496 327.359 273.608C327.471 273.72 327.527 273.869 327.527 274.056V274.448C327.527 274.635 327.471 274.784 327.359 274.896C327.247 275.008 327.098 275.064 326.911 275.064H323.439V283.212C323.439 284.257 323.607 285.051 323.943 285.592C324.298 286.115 324.876 286.376 325.679 286.376H327.191C327.378 286.376 327.527 286.432 327.639 286.544C327.751 286.656 327.807 286.805 327.807 286.992V287.384C327.807 287.571 327.751 287.72 327.639 287.832C327.527 287.944 327.378 288 327.191 288H325.539Z" fill="#EF4842"/>
<path d="M334.622 288.28C333.726 288.28 332.895 288.093 332.13 287.72C331.364 287.347 330.748 286.843 330.282 286.208C329.834 285.573 329.61 284.873 329.61 284.108C329.61 282.876 330.104 281.868 331.094 281.084C332.102 280.3 333.455 279.796 335.154 279.572L339.578 278.956V277.976C339.578 276.949 339.26 276.165 338.626 275.624C338.01 275.064 337.058 274.784 335.77 274.784C334.818 274.784 334.034 274.971 333.418 275.344C332.82 275.717 332.438 276.165 332.27 276.688C332.195 276.912 332.102 277.071 331.99 277.164C331.896 277.239 331.766 277.276 331.598 277.276H331.206C331.038 277.276 330.888 277.22 330.758 277.108C330.646 276.977 330.59 276.828 330.59 276.66C330.59 276.249 330.776 275.773 331.15 275.232C331.523 274.672 332.102 274.187 332.886 273.776C333.67 273.365 334.631 273.16 335.77 273.16C337.767 273.16 339.186 273.636 340.026 274.588C340.866 275.54 341.286 276.697 341.286 278.06V287.384C341.286 287.571 341.23 287.72 341.118 287.832C341.006 287.944 340.856 288 340.67 288H340.194C340.007 288 339.858 287.944 339.746 287.832C339.634 287.72 339.578 287.571 339.578 287.384V286.068C339.167 286.684 338.56 287.207 337.758 287.636C336.974 288.065 335.928 288.28 334.622 288.28ZM334.902 286.656C336.264 286.656 337.384 286.208 338.262 285.312C339.139 284.416 339.578 283.128 339.578 281.448V280.496L335.966 281C334.435 281.205 333.278 281.56 332.494 282.064C331.71 282.568 331.318 283.203 331.318 283.968C331.318 284.827 331.672 285.489 332.382 285.956C333.11 286.423 333.95 286.656 334.902 286.656Z" fill="#EF4842"/>
<path d="M126.28 288C125.757 288 125.403 287.767 125.216 287.3L120.064 274.308L120.008 274C120.008 273.851 120.064 273.72 120.176 273.608C120.288 273.496 120.419 273.44 120.568 273.44H121.156C121.324 273.44 121.455 273.487 121.548 273.58C121.66 273.673 121.735 273.767 121.772 273.86L126.504 285.956L131.236 273.86C131.273 273.767 131.339 273.673 131.432 273.58C131.544 273.487 131.684 273.44 131.852 273.44H132.44C132.589 273.44 132.72 273.496 132.832 273.608C132.944 273.72 133 273.851 133 274L132.944 274.308L127.792 287.3C127.605 287.767 127.251 288 126.728 288H126.28Z" fill="white"/>
<path d="M136.588 270.444C136.401 270.444 136.252 270.388 136.14 270.276C136.028 270.164 135.972 270.015 135.972 269.828V268.764C135.972 268.577 136.028 268.428 136.14 268.316C136.252 268.185 136.401 268.12 136.588 268.12H137.652C137.838 268.12 137.988 268.185 138.1 268.316C138.23 268.428 138.296 268.577 138.296 268.764V269.828C138.296 270.015 138.23 270.164 138.1 270.276C137.988 270.388 137.838 270.444 137.652 270.444H136.588ZM136.896 288C136.709 288 136.56 287.944 136.448 287.832C136.336 287.72 136.28 287.571 136.28 287.384V274.056C136.28 273.869 136.336 273.72 136.448 273.608C136.56 273.496 136.709 273.44 136.896 273.44H137.372C137.558 273.44 137.708 273.496 137.82 273.608C137.932 273.72 137.988 273.869 137.988 274.056V287.384C137.988 287.571 137.932 287.72 137.82 287.832C137.708 287.944 137.558 288 137.372 288H136.896Z" fill="white"/>
<path d="M146.434 288.28C145.538 288.28 144.707 288.093 143.942 287.72C143.177 287.347 142.561 286.843 142.094 286.208C141.646 285.573 141.422 284.873 141.422 284.108C141.422 282.876 141.917 281.868 142.906 281.084C143.914 280.3 145.267 279.796 146.966 279.572L151.39 278.956V277.976C151.39 276.949 151.073 276.165 150.438 275.624C149.822 275.064 148.87 274.784 147.582 274.784C146.63 274.784 145.846 274.971 145.23 275.344C144.633 275.717 144.25 276.165 144.082 276.688C144.007 276.912 143.914 277.071 143.802 277.164C143.709 277.239 143.578 277.276 143.41 277.276H143.018C142.85 277.276 142.701 277.22 142.57 277.108C142.458 276.977 142.402 276.828 142.402 276.66C142.402 276.249 142.589 275.773 142.962 275.232C143.335 274.672 143.914 274.187 144.698 273.776C145.482 273.365 146.443 273.16 147.582 273.16C149.579 273.16 150.998 273.636 151.838 274.588C152.678 275.54 153.098 276.697 153.098 278.06V287.384C153.098 287.571 153.042 287.72 152.93 287.832C152.818 287.944 152.669 288 152.482 288H152.006C151.819 288 151.67 287.944 151.558 287.832C151.446 287.72 151.39 287.571 151.39 287.384V286.068C150.979 286.684 150.373 287.207 149.57 287.636C148.786 288.065 147.741 288.28 146.434 288.28ZM146.714 286.656C148.077 286.656 149.197 286.208 150.074 285.312C150.951 284.416 151.39 283.128 151.39 281.448V280.496L147.778 281C146.247 281.205 145.09 281.56 144.306 282.064C143.522 282.568 143.13 283.203 143.13 283.968C143.13 284.827 143.485 285.489 144.194 285.956C144.922 286.423 145.762 286.656 146.714 286.656Z" fill="white"/>
<path d="M157.946 280.412C157.759 280.412 157.61 280.356 157.498 280.244C157.386 280.132 157.33 279.983 157.33 279.796V279.404C157.33 279.217 157.386 279.068 157.498 278.956C157.61 278.844 157.759 278.788 157.946 278.788H166.206C166.393 278.788 166.542 278.844 166.654 278.956C166.766 279.068 166.822 279.217 166.822 279.404V279.796C166.822 279.983 166.766 280.132 166.654 280.244C166.542 280.356 166.393 280.412 166.206 280.412H157.946Z" fill="white"/>
<path d="M171.814 293.32C171.628 293.32 171.478 293.264 171.366 293.152C171.254 293.04 171.198 292.891 171.198 292.704V274.056C171.198 273.869 171.254 273.72 171.366 273.608C171.478 273.496 171.628 273.44 171.814 273.44H172.29C172.477 273.44 172.626 273.496 172.738 273.608C172.85 273.72 172.906 273.869 172.906 274.056V275.372C173.989 273.897 175.557 273.16 177.61 273.16C179.626 273.16 181.11 273.804 182.062 275.092C183.033 276.361 183.546 277.929 183.602 279.796C183.621 279.983 183.63 280.291 183.63 280.72C183.63 281.149 183.621 281.457 183.602 281.644C183.546 283.511 183.033 285.088 182.062 286.376C181.11 287.645 179.626 288.28 177.61 288.28C175.576 288.28 174.008 287.543 172.906 286.068V292.704C172.906 292.891 172.85 293.04 172.738 293.152C172.626 293.264 172.477 293.32 172.29 293.32H171.814ZM177.442 286.656C178.954 286.656 180.056 286.18 180.746 285.228C181.456 284.257 181.838 283.016 181.894 281.504C181.913 281.317 181.922 281.056 181.922 280.72C181.922 278.984 181.586 277.565 180.914 276.464C180.242 275.344 179.085 274.784 177.442 274.784C175.968 274.784 174.857 275.279 174.11 276.268C173.364 277.239 172.962 278.387 172.906 279.712L172.878 280.804L172.906 281.896C172.925 282.699 173.102 283.464 173.438 284.192C173.774 284.901 174.278 285.489 174.95 285.956C175.622 286.423 176.453 286.656 177.442 286.656Z" fill="white"/>
<path d="M188.056 288C187.869 288 187.72 287.944 187.608 287.832C187.496 287.72 187.44 287.571 187.44 287.384V274.084C187.44 273.897 187.496 273.748 187.608 273.636C187.72 273.505 187.869 273.44 188.056 273.44H188.504C188.691 273.44 188.84 273.505 188.952 273.636C189.083 273.748 189.148 273.897 189.148 274.084V275.372C189.82 274.084 191.089 273.44 192.956 273.44H193.992C194.179 273.44 194.328 273.496 194.44 273.608C194.552 273.72 194.608 273.869 194.608 274.056V274.448C194.608 274.635 194.552 274.784 194.44 274.896C194.328 275.008 194.179 275.064 193.992 275.064H192.788C191.668 275.064 190.781 275.391 190.128 276.044C189.475 276.697 189.148 277.584 189.148 278.704V287.384C189.148 287.571 189.083 287.72 188.952 287.832C188.84 287.944 188.691 288 188.504 288H188.056Z" fill="white"/>
<path d="M202.39 288.28C200.449 288.28 198.937 287.692 197.854 286.516C196.79 285.321 196.23 283.781 196.174 281.896L196.146 280.72L196.174 279.544C196.23 277.659 196.79 276.128 197.854 274.952C198.937 273.757 200.449 273.16 202.39 273.16C204.332 273.16 205.834 273.757 206.898 274.952C207.981 276.128 208.55 277.659 208.606 279.544C208.625 279.731 208.634 280.123 208.634 280.72C208.634 281.317 208.625 281.709 208.606 281.896C208.55 283.781 207.981 285.321 206.898 286.516C205.834 287.692 204.332 288.28 202.39 288.28ZM202.39 286.656C203.716 286.656 204.78 286.236 205.582 285.396C206.404 284.537 206.842 283.324 206.898 281.756C206.917 281.569 206.926 281.224 206.926 280.72C206.926 280.216 206.917 279.871 206.898 279.684C206.842 278.116 206.404 276.912 205.582 276.072C204.78 275.213 203.716 274.784 202.39 274.784C201.065 274.784 199.992 275.213 199.17 276.072C198.368 276.912 197.938 278.116 197.882 279.684L197.854 280.72L197.882 281.756C197.938 283.324 198.368 284.537 199.17 285.396C199.992 286.236 201.065 286.656 202.39 286.656Z" fill="white"/>
<path d="M214.256 288C214.069 288 213.92 287.944 213.808 287.832C213.696 287.72 213.64 287.571 213.64 287.384V275.064H211.148C210.961 275.064 210.812 275.008 210.7 274.896C210.588 274.784 210.532 274.635 210.532 274.448V274.056C210.532 273.869 210.588 273.72 210.7 273.608C210.812 273.496 210.961 273.44 211.148 273.44H213.64V271.844C213.64 270.425 213.948 269.315 214.564 268.512C215.18 267.691 216.281 267.28 217.868 267.28H220.976C221.163 267.28 221.312 267.336 221.424 267.448C221.536 267.56 221.592 267.709 221.592 267.896V268.288C221.592 268.475 221.536 268.624 221.424 268.736C221.312 268.848 221.163 268.904 220.976 268.904H217.868C216.916 268.904 216.253 269.156 215.88 269.66C215.525 270.145 215.348 270.92 215.348 271.984V273.44H220.976C221.163 273.44 221.312 273.496 221.424 273.608C221.536 273.72 221.592 273.869 221.592 274.056V287.384C221.592 287.571 221.536 287.72 221.424 287.832C221.312 287.944 221.163 288 220.976 288H220.5C220.313 288 220.164 287.944 220.052 287.832C219.94 287.72 219.884 287.571 219.884 287.384V275.064H215.348V287.384C215.348 287.571 215.292 287.72 215.18 287.832C215.068 287.944 214.919 288 214.732 288H214.256Z" fill="white"/>
<path d="M231.031 288C229.65 288 228.67 287.589 228.091 286.768C227.513 285.928 227.223 284.78 227.223 283.324V275.064H225.039C224.853 275.064 224.703 275.008 224.591 274.896C224.479 274.784 224.423 274.635 224.423 274.448V274.056C224.423 273.869 224.479 273.72 224.591 273.608C224.703 273.496 224.853 273.44 225.039 273.44H227.223V268.736C227.223 268.549 227.279 268.4 227.391 268.288C227.503 268.176 227.653 268.12 227.839 268.12H228.315C228.502 268.12 228.651 268.176 228.763 268.288C228.875 268.4 228.931 268.549 228.931 268.736V273.44H232.403C232.59 273.44 232.739 273.496 232.851 273.608C232.963 273.72 233.019 273.869 233.019 274.056V274.448C233.019 274.635 232.963 274.784 232.851 274.896C232.739 275.008 232.59 275.064 232.403 275.064H228.931V283.212C228.931 284.257 229.099 285.051 229.435 285.592C229.79 286.115 230.369 286.376 231.171 286.376H232.683C232.87 286.376 233.019 286.432 233.131 286.544C233.243 286.656 233.299 286.805 233.299 286.992V287.384C233.299 287.571 233.243 287.72 233.131 287.832C233.019 287.944 232.87 288 232.683 288H231.031Z" fill="white"/>
<path d="M242.461 290.352C242.311 290.352 242.181 290.296 242.069 290.184C241.957 290.072 241.901 289.941 241.901 289.792C241.901 289.717 241.929 289.605 241.985 289.456L251.617 266.412C251.654 266.319 251.719 266.225 251.813 266.132C251.925 266.039 252.065 265.992 252.233 265.992H252.709C252.858 265.992 252.989 266.048 253.101 266.16C253.213 266.272 253.269 266.403 253.269 266.552C253.269 266.627 253.241 266.739 253.185 266.888L243.553 289.932C243.515 290.025 243.441 290.119 243.329 290.212C243.235 290.305 243.105 290.352 242.937 290.352H242.461Z" fill="white"/>
<path d="M1139.43 264.297C1138.57 264.297 1137.77 264.068 1137.02 263.667L1129.4 259.138C1128.25 258.507 1128.82 258.278 1129.17 258.164C1130.72 257.648 1131 257.533 1132.61 256.616C1132.78 256.501 1133.01 256.559 1133.18 256.673L1139.03 260.17C1139.26 260.285 1139.54 260.285 1139.72 260.17L1162.59 246.928C1162.82 246.813 1162.93 246.583 1162.93 246.297V219.87C1162.93 219.583 1162.82 219.354 1162.59 219.239L1139.72 206.054C1139.49 205.939 1139.2 205.939 1139.03 206.054L1116.16 219.239C1115.93 219.353 1115.81 219.64 1115.81 219.869V246.297C1115.81 246.526 1115.93 246.812 1116.16 246.928L1122.4 250.539C1125.79 252.259 1127.91 250.252 1127.91 248.246V222.162C1127.91 221.819 1128.19 221.474 1128.6 221.474H1131.52C1131.86 221.474 1132.21 221.761 1132.21 222.162V248.246C1132.21 252.774 1129.74 255.412 1125.44 255.412C1124.12 255.412 1123.09 255.412 1120.17 253.978L1114.15 250.539C1112.66 249.679 1111.74 248.074 1111.74 246.354V219.927C1111.74 218.207 1112.66 216.602 1114.15 215.742L1137.02 202.5C1138.46 201.697 1140.4 201.697 1141.84 202.5L1164.71 215.742C1166.2 216.602 1167.12 218.207 1167.12 219.927V246.354C1167.12 248.074 1166.2 249.679 1164.71 250.539L1141.84 263.781C1141.09 264.126 1140.23 264.297 1139.43 264.297H1139.43ZM1146.48 246.125C1136.45 246.125 1134.39 241.539 1134.39 237.641C1134.39 237.297 1134.67 236.953 1135.07 236.953H1138.05C1138.4 236.953 1138.68 237.182 1138.68 237.526C1139.14 240.564 1140.46 242.055 1146.54 242.055C1151.35 242.055 1153.42 240.966 1153.42 238.386C1153.42 236.895 1152.84 235.807 1145.33 235.061C1139.09 234.43 1135.19 233.055 1135.19 228.067C1135.19 223.424 1139.09 220.672 1145.62 220.672C1152.96 220.672 1156.57 223.195 1157.03 228.697C1157.03 228.87 1156.97 229.041 1156.86 229.214C1156.74 229.328 1156.57 229.443 1156.4 229.443H1153.42C1153.13 229.443 1152.84 229.214 1152.79 228.927C1152.1 225.774 1150.32 224.742 1145.62 224.742C1140.35 224.742 1139.72 226.577 1139.72 227.952C1139.72 229.615 1140.46 230.131 1147.57 231.048C1154.62 231.965 1157.95 233.284 1157.95 238.214C1157.89 243.259 1153.76 246.125 1146.48 246.125Z" fill="#539E43"/>
<path d="M1068.46 160.938C1068.46 159.906 1067.89 158.931 1066.97 158.415L1042.66 144.428C1042.26 144.198 1041.8 144.084 1041.34 144.026H1041.11C1040.66 144.026 1040.2 144.198 1039.8 144.428L1015.49 158.415C1014.57 158.931 1014 159.906 1014 160.938L1014.06 198.544C1014.06 199.06 1014.34 199.576 1014.8 199.805C1015.26 200.092 1015.83 200.092 1016.24 199.805L1030.68 191.55C1031.6 191.034 1032.17 190.06 1032.17 189.028V171.429C1032.17 170.397 1032.75 169.422 1033.66 168.906L1039.8 165.352C1040.26 165.065 1040.77 164.95 1041.29 164.95C1041.8 164.95 1042.32 165.065 1042.72 165.352L1048.85 168.906C1049.77 169.422 1050.34 170.396 1050.34 171.429V189.028C1050.34 190.06 1050.92 191.034 1051.84 191.55L1066.28 199.805C1066.74 200.092 1067.31 200.092 1067.77 199.805C1068.23 199.576 1068.52 199.06 1068.52 198.544L1068.46 160.938ZM1185.29 109.172C1184.83 108.943 1184.26 108.943 1183.86 109.172C1183.4 109.459 1183.11 109.917 1183.11 110.433V147.696C1183.11 148.039 1182.94 148.383 1182.6 148.613C1182.25 148.784 1181.91 148.784 1181.56 148.613L1175.49 145.116C1175.04 144.862 1174.54 144.729 1174.03 144.729C1173.51 144.729 1173.01 144.862 1172.56 145.116L1148.26 159.161C1147.34 159.677 1146.77 160.651 1146.77 161.683V189.715C1146.77 190.747 1147.34 191.722 1148.26 192.238L1172.56 206.283C1173.01 206.537 1173.51 206.67 1174.03 206.67C1174.54 206.67 1175.04 206.537 1175.49 206.283L1199.79 192.238C1200.71 191.722 1201.29 190.748 1201.29 189.715V119.835C1201.29 118.746 1200.71 117.772 1199.79 117.255L1185.29 109.172H1185.29ZM1183.06 180.486C1183.06 180.773 1182.94 181.002 1182.71 181.117L1174.4 185.932C1174.28 185.989 1174.16 186.018 1174.03 186.018C1173.9 186.018 1173.77 185.989 1173.65 185.932L1165.34 181.117C1165.11 181.002 1165 180.715 1165 180.486V170.855C1165 170.569 1165.11 170.339 1165.34 170.225L1173.65 165.409C1173.77 165.352 1173.9 165.323 1174.03 165.323C1174.16 165.323 1174.28 165.352 1174.4 165.409L1182.71 170.225C1182.94 170.339 1183.06 170.626 1183.06 170.855V180.486ZM1266.18 170.626C1267.1 170.11 1267.61 169.136 1267.61 168.103V161.282C1267.61 160.25 1267.04 159.276 1266.18 158.76L1242.04 144.772C1241.6 144.519 1241.09 144.385 1240.58 144.385C1240.07 144.385 1239.57 144.519 1239.12 144.772L1214.81 158.817C1213.9 159.333 1213.32 160.307 1213.32 161.339V189.372C1213.32 190.403 1213.9 191.378 1214.81 191.894L1238.95 205.652C1239.87 206.168 1240.95 206.168 1241.82 205.652L1256.43 197.513C1256.89 197.283 1257.18 196.767 1257.18 196.251C1257.18 195.736 1256.89 195.22 1256.43 194.99L1232.01 180.945C1231.55 180.659 1231.27 180.2 1231.27 179.684V170.913C1231.27 170.397 1231.55 169.882 1232.01 169.652L1239.64 165.295C1239.86 165.155 1240.12 165.08 1240.38 165.08C1240.65 165.08 1240.9 165.155 1241.13 165.295L1248.75 169.652C1249.21 169.939 1249.5 170.397 1249.5 170.913V177.792C1249.5 178.308 1249.78 178.824 1250.24 179.053C1250.7 179.34 1251.27 179.34 1251.73 179.053L1266.18 170.626Z" fill="#333333"/>
<path d="M1240.21 169.308C1240.29 169.252 1240.39 169.222 1240.5 169.222C1240.6 169.222 1240.7 169.252 1240.78 169.308L1245.43 172.002C1245.6 172.116 1245.71 172.288 1245.71 172.518V177.907C1245.71 178.136 1245.6 178.308 1245.43 178.422L1240.78 181.117C1240.7 181.173 1240.6 181.203 1240.5 181.203C1240.39 181.203 1240.29 181.173 1240.21 181.117L1235.57 178.422C1235.39 178.308 1235.28 178.136 1235.28 177.907V172.518C1235.28 172.288 1235.39 172.116 1235.57 172.002L1240.21 169.308Z" fill="#539E43"/>
<mask id="mask0" mask-type="alpha" maskUnits="userSpaceOnUse" x="1080" y="144" width="55" height="63">
<path d="M1109.1 144.887C1108.66 144.633 1108.15 144.5 1107.64 144.5C1107.13 144.5 1106.63 144.633 1106.18 144.887L1082.05 158.816C1081.13 159.332 1080.61 160.307 1080.61 161.338V189.257C1080.61 190.288 1081.19 191.263 1082.05 191.779L1106.18 205.709C1106.63 205.963 1107.13 206.096 1107.64 206.096C1108.15 206.096 1108.66 205.963 1109.1 205.709L1133.24 191.779C1134.16 191.263 1134.67 190.288 1134.67 189.257V161.339C1134.67 160.307 1134.1 159.333 1133.24 158.817L1109.1 144.887Z" fill="white"/>
</mask>
<g mask="url(#mask0)">
<path d="M1109.1 144.887C1108.66 144.633 1108.15 144.5 1107.64 144.5C1107.13 144.5 1106.63 144.633 1106.18 144.887L1082.05 158.816C1081.13 159.332 1080.61 160.307 1080.61 161.338V189.257C1080.61 190.288 1081.19 191.263 1082.05 191.779L1106.18 205.709C1106.63 205.963 1107.13 206.096 1107.64 206.096C1108.15 206.096 1108.66 205.963 1109.1 205.709L1133.24 191.779C1134.16 191.263 1134.67 190.288 1134.67 189.257V161.339C1134.67 160.307 1134.1 159.333 1133.24 158.817L1109.1 144.887Z" fill="url(#paint2_linear)"/>
<path d="M1133.3 158.817L1109.05 144.887C1108.81 144.766 1108.56 144.67 1108.3 144.6L1081.13 191.149C1081.35 191.424 1081.63 191.657 1081.93 191.837L1106.18 205.768C1106.87 206.169 1107.67 206.284 1108.42 206.054L1133.93 159.391C1133.75 159.161 1133.53 158.989 1133.3 158.817V158.817Z" fill="url(#paint3_linear)"/>
<path fill-rule="evenodd" clip-rule="evenodd" d="M1133.35 191.779C1134.04 191.378 1134.56 190.69 1134.79 189.945L1108.19 144.543C1107.5 144.428 1106.75 144.485 1106.12 144.886L1082.05 158.76L1108.01 206.111C1108.39 206.049 1108.76 205.933 1109.1 205.767L1133.35 191.78L1133.35 191.779Z" fill="url(#paint4_linear)"/>
<path fill-rule="evenodd" clip-rule="evenodd" d="M1133.35 191.779L1109.16 205.71C1108.82 205.884 1108.45 206 1108.07 206.054L1108.53 206.914L1135.36 191.379V191.034L1134.67 189.888C1134.56 190.69 1134.04 191.378 1133.35 191.779Z" fill="url(#paint5_linear)"/>
<path fill-rule="evenodd" clip-rule="evenodd" d="M1133.35 191.779L1109.16 205.71C1108.82 205.884 1108.45 206 1108.07 206.054L1108.53 206.914L1135.36 191.379V191.034L1134.67 189.888C1134.56 190.69 1134.04 191.378 1133.35 191.779Z" fill="url(#paint6_linear)"/>
</g>
<path d="M540.573 249.822C532.967 251.818 535.355 263.739 535.355 269.582V324.371C535.355 329.875 533.286 339.863 539.269 342.871C544.106 345.302 553.47 343.504 558.837 343.504H828.867C834.638 343.504 844.99 345.497 850.172 342.871C856.121 339.855 854.088 329.822 854.088 324.371V269.582C854.088 263.623 856.433 252.044 848.87 249.857C845.968 249.018 842.304 249.579 839.303 249.579H562.315C555.639 249.579 547.031 248.127 540.573 249.822V249.822ZM559.271 323.936V269.146C572.434 269.146 590.615 265.995 602.32 273.263C605.159 275.026 607.257 277.68 608.217 280.887C609.216 284.226 608.843 287.877 608.843 291.323C608.843 299.856 611.56 313.838 603.618 319.679C597.957 323.843 590.758 323.936 584.057 323.936H559.272L559.271 323.936ZM661.462 323.936V269.146C674.243 269.146 692.74 265.917 704.076 273.1C707.045 274.982 709.134 277.5 710.145 280.887C711.283 284.699 711.033 288.7 711.033 292.627C711.033 301.671 713.311 314.622 704.511 320.41C699.171 323.922 692.382 323.935 686.248 323.935H661.462V323.936ZM774.52 271.32V282.191H785.825V290.018H774.52V308.281C774.52 310.779 774.259 314.024 776.408 315.803C778.751 317.742 783 316.978 785.825 316.978C785.825 318.704 786.5 322.257 785.378 323.674C784.456 324.838 781.524 324.45 780.172 324.621C774.445 325.345 766.07 323.985 763.356 318.283C761.055 313.448 761.909 307.391 761.909 302.194V271.32H774.519L774.52 271.32ZM572.755 278.713V314.369C578.507 314.369 588.357 316.255 593.111 312.353C595.337 310.524 595.366 307.877 595.367 305.238V289.149C595.367 286.057 595.464 283.222 592.739 281.164C587.581 277.27 578.799 278.713 572.755 278.713L572.755 278.713ZM674.945 278.713V314.369C680.419 314.369 690.45 316.268 694.902 312.458C697.065 310.607 697.543 307.931 697.556 305.237C697.59 298.816 700.135 285.44 694.506 281.069C689.563 277.23 680.781 278.712 674.944 278.712L674.945 278.713ZM640.592 298.715C640.592 297.16 640.776 295.457 640.421 293.933C638.506 285.714 625.424 292.962 620.835 289.571C619.172 288.342 618.933 284.091 618.85 282.191C626.074 282.191 633.414 281.795 640.592 282.604C643.973 282.985 647.993 283.593 650.45 286.187C652.883 288.755 653.201 292.32 653.202 295.671C653.205 302.977 654.442 311.547 653.054 318.717C652.552 321.312 650.505 323.103 647.984 323.704C645.259 324.354 642.075 323.935 639.287 323.935C633.076 323.935 623.954 325.578 618.416 322.194C612.32 318.469 612.341 304.248 618.422 300.456C624.14 296.89 634.146 298.715 640.593 298.715L640.592 298.715ZM742.776 298.715C742.775 296.385 742.99 293.712 741.289 291.856C737.807 288.057 727.051 290.018 722.338 290.018L720.599 282.191C727.798 282.191 735.193 281.703 742.341 282.558C746.032 283 750.082 283.609 752.679 286.558C757.518 292.051 755.386 303.696 755.386 310.456C755.386 313.137 755.726 316.094 755.089 318.718C754.44 321.383 752.365 323.097 749.733 323.706C746.995 324.338 743.833 323.936 741.037 323.936C734.569 323.936 725.393 325.602 719.747 321.775C714.309 318.089 714.67 304.163 720.182 300.663C726.114 296.895 736.053 298.716 742.776 298.716L742.776 298.715ZM817.13 298.716C817.129 296.386 817.344 293.713 815.643 291.857C812.16 288.058 801.406 290.019 796.692 290.019L794.953 282.192C802.151 282.192 809.547 281.704 816.695 282.559C820.386 283.001 824.436 283.61 827.033 286.559C831.872 292.052 829.74 303.697 829.74 310.457C829.74 313.138 830.08 316.095 829.443 318.719C828.794 321.384 826.719 323.098 824.087 323.707C821.349 324.339 818.187 323.937 815.39 323.937C808.923 323.937 799.747 325.603 794.1 321.776C788.441 317.94 789.118 303.795 794.97 300.414C800.917 296.979 810.509 298.716 817.129 298.716L817.13 298.716ZM640.585 316.979V305.674C637.092 305.674 631.178 304.547 628.074 306.358C625.817 307.675 625.831 315.071 628.074 316.406C631.034 318.167 637.218 316.979 640.585 316.979V316.979ZM742.769 316.979V305.674C739.31 305.674 733.297 304.521 730.217 306.247C727.504 307.766 727.534 314.923 730.217 316.467C733.187 318.175 739.399 316.979 742.769 316.979ZM817.122 316.979V305.674C813.663 305.674 807.651 304.521 804.57 306.247C801.858 307.766 801.888 314.923 804.57 316.467C807.541 318.175 813.753 316.979 817.122 316.979Z" fill="#EF4842"/>
<path d="M876.932 281.869V323.747H884.25V300.313C884.25 292.534 889.19 288.646 899.07 288.646V281.869C894.251 281.869 890.849 282.308 888.861 283.186C886.933 284.064 885.394 285.539 884.25 287.609V281.869H876.932ZM906.027 281.869V309.535C906.027 319.762 911.179 324.876 921.48 324.876C927.083 324.876 931.148 322.711 933.678 318.382V323.747H941V281.87H933.678V308.785C933.678 312.048 932.627 314.712 930.518 316.783C928.47 318.791 925.968 319.794 923.016 319.794C920.426 319.794 918.167 318.823 916.24 316.879C914.312 314.934 913.349 312.517 913.349 309.631V281.87L906.027 281.869Z" fill="#CDCCCC"/>
<path d="M861.182 316.177H869.298V323.843H861.182V316.177Z" fill="#CDCCCC"/>
<path fill-rule="evenodd" clip-rule="evenodd" d="M1034.46 344H1071.23C1073.69 344 1075.69 346.011 1075.69 348.492V385.508C1075.69 387.989 1073.69 390 1071.23 390H1034.46C1032 390 1030 387.989 1030 385.508V348.492C1030 346.011 1032 344 1034.46 344ZM1058.28 385.102V380.605C1059.09 381.289 1059.97 381.802 1060.92 382.144C1061.87 382.486 1062.83 382.657 1063.8 382.657C1064.37 382.657 1064.86 382.605 1065.29 382.502C1065.71 382.399 1066.06 382.256 1066.35 382.073C1066.63 381.891 1066.84 381.675 1066.98 381.427C1067.12 381.178 1067.19 380.909 1067.19 380.619C1067.19 380.225 1067.08 379.874 1066.86 379.564C1066.63 379.255 1066.33 378.969 1065.94 378.707C1065.56 378.445 1065.1 378.192 1064.57 377.948C1064.04 377.704 1063.46 377.456 1062.85 377.203C1061.28 376.547 1060.12 375.746 1059.35 374.8C1058.58 373.853 1058.2 372.71 1058.2 371.37C1058.2 370.321 1058.41 369.419 1058.83 368.665C1059.25 367.91 1059.82 367.29 1060.54 366.802C1061.26 366.315 1062.09 365.957 1063.04 365.727C1063.99 365.498 1065 365.383 1066.06 365.383C1067.1 365.383 1068.03 365.446 1068.83 365.573C1069.64 365.699 1070.38 365.893 1071.06 366.156V370.358C1070.72 370.124 1070.36 369.918 1069.96 369.74C1069.57 369.562 1069.16 369.414 1068.74 369.297C1068.32 369.18 1067.91 369.093 1067.49 369.037C1067.08 368.981 1066.68 368.953 1066.31 368.953C1065.8 368.953 1065.33 369.002 1064.92 369.1C1064.5 369.199 1064.14 369.337 1063.85 369.515C1063.57 369.693 1063.34 369.906 1063.18 370.155C1063.03 370.403 1062.95 370.682 1062.95 370.991C1062.95 371.328 1063.03 371.63 1063.21 371.897C1063.39 372.164 1063.64 372.417 1063.97 372.656C1064.29 372.895 1064.69 373.13 1065.15 373.359C1065.62 373.589 1066.14 373.825 1066.73 374.069C1067.53 374.406 1068.25 374.765 1068.89 375.144C1069.53 375.524 1070.07 375.952 1070.53 376.43C1070.99 376.908 1071.33 377.454 1071.58 378.068C1071.82 378.681 1071.94 379.396 1071.94 380.211C1071.94 381.335 1071.73 382.279 1071.3 383.043C1070.88 383.807 1070.31 384.425 1069.58 384.898C1068.85 385.372 1068.01 385.711 1067.04 385.917C1066.08 386.124 1065.06 386.227 1063.99 386.227C1062.89 386.227 1061.85 386.133 1060.86 385.945C1059.87 385.758 1059.01 385.477 1058.28 385.102ZM1056.5 369.523H1050.77V385.957H1046.23V369.523H1040.53V365.832H1056.5V369.523Z" fill="white"/>
<path d="M1104.8 350.673H1096.23V377.702H1092.74V350.673H1084.19V347.465H1104.8V350.673Z" fill="white"/>
<path d="M1118.33 356.112L1108.57 381.156C1106.83 385.624 1104.39 387.86 1101.23 387.86C1100.35 387.86 1099.61 387.771 1099.02 387.585V384.484C1099.75 384.736 1100.42 384.862 1101.03 384.862C1102.74 384.862 1104.03 383.824 1104.88 381.744L1106.58 377.654L1098.29 356.112H1102.07L1107.8 372.724C1107.88 372.934 1108.02 373.486 1108.24 374.367H1108.36C1108.44 374.031 1108.57 373.498 1108.78 372.766L1114.81 356.112H1118.33Z" fill="white"/>
<path d="M1123.89 374.583H1123.8V387.633H1120.4V356.113H1123.8V359.909H1123.89C1125.56 357.042 1128 355.609 1131.22 355.609C1133.96 355.609 1136.09 356.574 1137.62 358.505C1139.15 360.436 1139.92 363.027 1139.92 366.277C1139.92 369.888 1139.06 372.784 1137.33 374.955C1135.61 377.126 1133.24 378.211 1130.25 378.211C1127.5 378.205 1125.38 377 1123.89 374.583ZM1123.8 365.876V368.892C1123.8 370.679 1124.37 372.19 1125.51 373.438C1126.65 374.685 1128.1 375.303 1129.85 375.303C1131.91 375.303 1133.53 374.499 1134.69 372.898C1135.86 371.297 1136.44 369.066 1136.44 366.217C1136.44 363.813 1135.89 361.93 1134.8 360.568C1133.71 359.207 1132.24 358.523 1130.37 358.523C1128.4 358.523 1126.81 359.225 1125.61 360.622C1124.4 362.014 1123.8 363.765 1123.8 365.876Z" fill="white"/>
<path d="M1160.53 367.771H1145.55C1145.61 370.175 1146.24 372.028 1147.46 373.336C1148.67 374.643 1150.34 375.297 1152.47 375.297C1154.86 375.297 1157.05 374.493 1159.06 372.892V376.136C1157.2 377.516 1154.73 378.205 1151.66 378.205C1148.66 378.205 1146.31 377.228 1144.6 375.267C1142.88 373.306 1142.03 370.547 1142.03 366.991C1142.03 363.633 1142.97 360.892 1144.83 358.781C1146.71 356.664 1149.03 355.609 1151.8 355.609C1154.58 355.609 1156.73 356.52 1158.25 358.349C1159.77 360.178 1160.53 362.715 1160.53 365.96V367.771H1160.53ZM1157.05 364.838C1157.04 362.841 1156.56 361.288 1155.63 360.178C1154.7 359.069 1153.4 358.511 1151.75 358.511C1150.14 358.511 1148.78 359.093 1147.66 360.262C1146.54 361.432 1145.85 362.955 1145.59 364.838H1157.05Z" fill="white"/>
<path d="M1163.5 376.478V372.304C1163.93 372.724 1164.44 373.108 1165.05 373.444C1165.65 373.78 1166.28 374.067 1166.94 374.295C1167.61 374.523 1168.27 374.709 1168.94 374.835C1169.61 374.961 1170.23 375.027 1170.8 375.027C1172.75 375.027 1174.22 374.625 1175.19 373.816C1176.15 373.006 1176.64 371.843 1176.64 370.325C1176.64 369.51 1176.48 368.802 1176.15 368.196C1175.83 367.591 1175.39 367.039 1174.82 366.541C1174.24 366.043 1173.57 365.564 1172.79 365.108C1172.02 364.652 1171.18 364.172 1170.28 363.663C1169.34 363.129 1168.45 362.589 1167.63 362.038C1166.81 361.492 1166.09 360.886 1165.49 360.226C1164.89 359.567 1164.41 358.817 1164.06 357.984C1163.71 357.15 1163.54 356.166 1163.54 355.045C1163.54 353.666 1163.81 352.472 1164.36 351.453C1164.9 350.433 1165.61 349.594 1166.5 348.934C1167.38 348.274 1168.39 347.783 1169.52 347.459C1170.65 347.135 1171.81 346.973 1172.98 346.973C1175.66 346.973 1177.61 347.333 1178.84 348.047V352.029C1177.24 350.793 1175.17 350.176 1172.66 350.176C1171.96 350.176 1171.27 350.259 1170.57 350.415C1169.88 350.577 1169.26 350.841 1168.72 351.207C1168.17 351.573 1167.73 352.041 1167.39 352.622C1167.05 353.198 1166.88 353.9 1166.88 354.733C1166.88 355.507 1167.01 356.172 1167.27 356.736C1167.53 357.3 1167.91 357.81 1168.42 358.277C1168.92 358.739 1169.54 359.189 1170.27 359.627C1170.99 360.065 1171.83 360.538 1172.78 361.06C1173.75 361.594 1174.67 362.157 1175.55 362.745C1176.42 363.333 1177.18 363.987 1177.84 364.706C1178.49 365.426 1179.02 366.217 1179.4 367.087C1179.78 367.957 1179.98 368.958 1179.98 370.079C1179.98 371.567 1179.71 372.832 1179.19 373.864C1178.67 374.895 1177.96 375.735 1177.07 376.382C1176.18 377.03 1175.16 377.498 1173.99 377.786C1172.83 378.073 1171.6 378.217 1170.31 378.217C1169.88 378.217 1169.35 378.181 1168.72 378.103C1168.09 378.025 1167.44 377.911 1166.79 377.768C1166.13 377.618 1165.51 377.438 1164.92 377.222C1164.33 376.988 1163.86 376.742 1163.5 376.478Z" fill="white"/>
<path d="M1198.06 376.712C1196.43 377.708 1194.5 378.211 1192.26 378.211C1189.24 378.211 1186.79 377.21 1184.94 375.207C1183.08 373.204 1182.15 370.607 1182.15 367.417C1182.15 363.861 1183.15 361.006 1185.16 358.847C1187.16 356.688 1189.83 355.609 1193.18 355.609C1195.04 355.609 1196.68 355.963 1198.11 356.664V360.208C1196.54 359.081 1194.85 358.523 1193.05 358.523C1190.88 358.523 1189.1 359.315 1187.72 360.898C1186.34 362.481 1185.64 364.556 1185.64 367.129C1185.64 369.66 1186.29 371.657 1187.6 373.114C1188.9 374.571 1190.65 375.309 1192.85 375.309C1194.7 375.309 1196.43 374.685 1198.07 373.432V376.712H1198.06Z" fill="white"/>
<path d="M1211.21 359.609C1210.61 359.147 1209.76 358.913 1208.64 358.913C1207.19 358.913 1205.97 359.609 1205 361C1204.03 362.391 1203.54 364.286 1203.54 366.691V377.696H1200.14V356.106H1203.54V360.556H1203.62C1204.11 359.039 1204.84 357.852 1205.84 357.006C1206.84 356.154 1207.94 355.729 1209.17 355.729C1210.06 355.729 1210.74 355.825 1211.21 356.023V359.609Z" fill="white"/>
<path d="M1215.11 350.631C1214.5 350.631 1213.98 350.421 1213.55 350.002C1213.12 349.582 1212.91 349.048 1212.91 348.4C1212.91 347.753 1213.12 347.219 1213.55 346.787C1213.98 346.361 1214.5 346.146 1215.11 346.146C1215.73 346.146 1216.26 346.361 1216.69 346.787C1217.13 347.219 1217.35 347.753 1217.35 348.4C1217.35 349.018 1217.13 349.546 1216.69 349.984C1216.26 350.409 1215.73 350.631 1215.11 350.631ZM1216.76 377.702H1213.36V356.112H1216.76V377.702Z" fill="white"/>
<path d="M1222.24 374.583H1222.16V387.633H1218.76V356.113H1222.16V359.909H1222.24C1223.92 357.042 1226.36 355.609 1229.58 355.609C1232.31 355.609 1234.45 356.574 1235.98 358.505C1237.51 360.436 1238.28 363.027 1238.28 366.277C1238.28 369.888 1237.42 372.784 1235.69 374.955C1233.96 377.126 1231.6 378.211 1228.61 378.211C1225.86 378.205 1223.74 377 1222.24 374.583ZM1222.16 365.876V368.892C1222.16 370.679 1222.73 372.19 1223.87 373.438C1225.01 374.685 1226.46 375.303 1228.21 375.303C1230.27 375.303 1231.88 374.499 1233.05 372.898C1234.22 371.297 1234.8 369.066 1234.8 366.217C1234.8 363.813 1234.25 361.93 1233.16 360.568C1232.07 359.207 1230.59 358.523 1228.73 358.523C1226.76 358.523 1225.17 359.225 1223.96 360.622C1222.76 362.014 1222.16 363.765 1222.16 365.876Z" fill="white"/>
<path d="M1251 377.492C1250.2 377.941 1249.14 378.163 1247.83 378.163C1244.12 378.163 1242.26 376.052 1242.26 371.837V359.063H1238.61V356.112H1242.26V350.841L1245.66 349.726V356.112H1251V359.063H1245.66V371.225C1245.66 372.67 1245.9 373.708 1246.38 374.325C1246.86 374.943 1247.66 375.255 1248.78 375.255C1249.64 375.255 1250.38 375.015 1251 374.535V377.492Z" fill="white"/>
</g>
<defs>
<linearGradient id="paint0_linear" x1="-168.5" y1="122" x2="1424" y2="468" gradientUnits="userSpaceOnUse">
<stop stop-color="#230000"/>
<stop offset="0.786458" stop-color="#170000"/>
</linearGradient>
<radialGradient id="paint1_radial" cx="0" cy="0" r="1" gradientUnits="userSpaceOnUse" gradientTransform="translate(477 260.5) rotate(15.0024) scale(1014.06 1356.68)">
<stop stop-color="#291313"/>
<stop offset="1" stop-color="#472727" stop-opacity="0"/>
</radialGradient>
<linearGradient id="paint2_linear" x1="1117.47" y1="155.271" x2="1091.02" y2="196.837" gradientUnits="userSpaceOnUse">
<stop stop-color="#41873F"/>
<stop offset="0.3288" stop-color="#418B3D"/>
<stop offset="0.6352" stop-color="#419637"/>
<stop offset="0.9319" stop-color="#3FA92D"/>
<stop offset="1" stop-color="#3FAE2A"/>
</linearGradient>
<linearGradient id="paint3_linear" x1="1103.98" y1="178.568" x2="1170.23" y2="142.574" gradientUnits="userSpaceOnUse">
<stop offset="0.1376" stop-color="#41873F"/>
<stop offset="0.4032" stop-color="#54A044"/>
<stop offset="0.7136" stop-color="#66B848"/>
<stop offset="0.9081" stop-color="#6CC04A"/>
</linearGradient>
<linearGradient id="paint4_linear" x1="1079.73" y1="175.299" x2="1135.58" y2="175.299" gradientUnits="userSpaceOnUse">
<stop offset="0.09192" stop-color="#6CC04A"/>
<stop offset="0.2864" stop-color="#66B848"/>
<stop offset="0.5968" stop-color="#54A044"/>
<stop offset="0.8624" stop-color="#41873F"/>
</linearGradient>
<linearGradient id="paint5_linear" x1="1079.73" y1="198.447" x2="1135.58" y2="198.447" gradientUnits="userSpaceOnUse">
<stop offset="0.09192" stop-color="#6CC04A"/>
<stop offset="0.2864" stop-color="#66B848"/>
<stop offset="0.5968" stop-color="#54A044"/>
<stop offset="0.8624" stop-color="#41873F"/>
</linearGradient>
<linearGradient id="paint6_linear" x1="1143.71" y1="153.951" x2="1129.57" y2="228.086" gradientUnits="userSpaceOnUse">
<stop stop-color="#41873F"/>
<stop offset="0.3288" stop-color="#418B3D"/>
<stop offset="0.6352" stop-color="#419637"/>
<stop offset="0.9319" stop-color="#3FA92D"/>
<stop offset="1" stop-color="#3FAE2A"/>
</linearGradient>
<clipPath id="clip0">
<rect width="1416.98" height="497.411" fill="white"/>
</clipPath>
</defs>
</svg>
